<svg xmlns="http://www.w3.org/2000/svg" viewBox="0 0 182.77 108.27"><defs><style>.cls-1{fill:#7776bc;}</style></defs><title>Icon Alone</title><g id="Layer_2" data-name="Layer 2"><g id="Layer_1-2" data-name="Layer 1"><path class="cls-1" d="M166.36,0H142.87a16.31,16.31,0,0,0-11.61,4.8L108.07,28h0L69.43,66.63,42.07,94a3,3,0,0,1-2.17.9H16.46a3.08,3.08,0,0,1-3.07-3.08V16.45a3.09,3.09,0,0,1,3.07-3.08H39.9a3,3,0,0,1,2.17.91L67,39.19H85.92L51.54,4.81A16.33,16.33,0,0,0,39.9,0H16.46A16.48,16.48,0,0,0,0,16.45V91.8a16.49,16.49,0,0,0,16.46,16.47H39.9a16.35,16.35,0,0,0,11.64-4.83L91.38,63.59l9.47-9.46,39.86-39.87a3.11,3.11,0,0,1,2.15-.88h23.49a3,3,0,0,1,3,3V91.85a3,3,0,0,1-3,3H142.87a3.1,3.1,0,0,1-2.15-.88L116,69.29H97.09l34.17,34.16a16.29,16.29,0,0,0,11.61,4.82h23.49a16.43,16.43,0,0,0,16.42-16.42V16.41A16.42,16.42,0,0,0,166.36,0Z"/></g></g></svg>